<?xml version="1.0" encoding="UTF-8"?>
<svg xmlns="http://www.w3.org/2000/svg" viewBox="0 0 317.61 314.48">
  <defs>
    <style>
      .cls-1 {
        fill: #fff;
        stroke: #000;
        stroke-miterlimit: 10;
        stroke-width: 3px;
      }
    </style>
  </defs>
  <g id="Ebene_4" data-name="Ebene 4">
    <rect class="cls-1" x="1.5" y="1.5" width="314.61" height="311.48"/>
  </g>
  <g id="Ebene_2" data-name="Ebene 2">
    <path d="M157.28,22.68c-11.65,17.32-23.3,34.65-34.95,51.97-1.04,1.55.35,3.59,2.17,3.17l35.61-8.1,34.36,8.05c1.83.43,3.24-1.62,2.18-3.17l-35.26-51.93c-.99-1.45-3.13-1.45-4.11,0Z"/>
    <path d="M249.1,22.29c-11.65,17.32-23.3,34.65-34.95,51.97-1.04,1.55.35,3.59,2.17,3.17l35.61-8.1,34.36,8.05c1.83.43,3.24-1.62,2.18-3.17l-35.26-51.93c-.99-1.45-3.13-1.45-4.11,0Z"/>
    <rect x="143.28" y="61.53" width="32.61" height="232.43"/>
    <rect x="235.11" y="61.53" width="32.61" height="232.43"/>
    <rect x="51.72" y="218.05" width="32.61" height="76.43"/>
    <rect x="94.76" y="114.28" width="32.61" height="134.9" transform="translate(161.03 -25.3) rotate(45)"/>
  </g>
</svg>