<?xml version="1.0" encoding="UTF-8"?>
<svg id="Abbildungen" xmlns="http://www.w3.org/2000/svg" viewBox="0 0 64 64">
  <g>
    <path d="M38.22,7.09c.65,0,1.28.13,1.88.39l2.21.96.92-2.22c-1.26-1.65-3.25-2.72-5.48-2.72-2.61,0-4.88,1.45-6.05,3.59h6.53Z"/>
    <path d="M39.7,8.4c-.47-.2-.97-.31-1.48-.31h-4.4c-.43,1.87.54,3.84,2.38,4.6h0c2.05.85,4.4-.12,5.24-2.17l.48-1.16-2.23-.97Z"/>
  </g>
  <path d="M54.29,47.64c-.95-2.29-2.74-4.08-5.03-5.03-1.32-.55-2.72-.78-4.1-.7l-.49-3.76,2.44-2.44,4.2-4.2c.66-.66.85-1.65.5-2.5l-.38-.92,1.54-1.54c.66-.66.85-1.65.5-2.5l-2.29-5.56c-.3-.73-1.01-1.2-1.79-1.2h-2.42l-.06-.14c-.08-.2-.18-.39-.28-.57h2.53c.39,0,.7-.31.7-.7s-.31-.7-.7-.7h-3.74c-.85-.68-1.93-1.07-3.06-1.07h-1.59s0,0,0,0c-.45,0-.89.16-1.23.5l-5.69,5.69h-8.42c-.95,0-1.72.77-1.72,1.72h0c0,.95.77,1.72,1.72,1.72h.55l2.14,2.14-4.7,6.18c-.47-.31-.98-.58-1.52-.8-4.74-1.96-10.19.3-12.15,5.03-.95,2.29-.95,4.82,0,7.12.95,2.29,2.74,4.08,5.03,5.03,1.16.48,2.36.71,3.55.71,3.65,0,7.12-2.16,8.6-5.74,1.56-3.76.45-7.97-2.44-10.53l1.32-1.73,6.64,12.75-1.53,1.53c-.9.9-.9,2.35,0,3.25h0c.9.9,2.35.9,3.25,0l1.09-1.09,1.65.68c-.71,2.12-.63,4.4.24,6.48.95,2.29,2.74,4.08,5.03,5.03,1.15.48,2.35.71,3.56.71s2.41-.24,3.56-.71c2.29-.95,4.08-2.74,5.03-5.03.95-2.29.95-4.82,0-7.12ZM24.4,42.38c-1.05,2.54-3.52,4.07-6.11,4.07-.84,0-1.69-.16-2.52-.5-1.63-.67-2.9-1.94-3.57-3.57-.67-1.63-.67-3.42,0-5.05,1.05-2.54,3.52-4.07,6.11-4.07.84,0,1.69.16,2.52.5.32.13.63.29.91.46l-3.98,5.23c-.23.3-.17.72.13.95.12.09.27.14.41.14.2,0,.4-.09.54-.27l3.98-5.22c1.94,1.83,2.66,4.74,1.58,7.34ZM44.88,50.13l-4.99-2.07c.72-1.34,1.86-2.37,3.28-2.96.33-.14.66-.24,1-.32l.7,5.35ZM33.41,42.9l-6.73-12.94.74-.98,6.71,2.78v9l4.6-4.6v-2.5s1.76.73,1.76.73l1.03-1.03-2.8-1.16v-.52h4.48l.8-.8-1.57-3.79h-6.01c-1.27,0-2.3,1.03-2.3,2.3v.92l-5.86-2.43,1.6-2.11-2.02-2.02h6.68c.46,0,.9-.18,1.22-.51l4.38-4.38,5.07,12.25-11.79,11.79ZM37.39,47.02l-1.13-.47,7.2-7.2.36,2.73c-.57.12-1.13.29-1.68.52-2.09.86-3.75,2.42-4.75,4.42ZM51.8,53.72c-.67,1.63-1.94,2.9-3.57,3.57-1.63.67-3.42.67-5.05,0-1.63-.67-2.9-1.94-3.57-3.57-.59-1.42-.66-2.96-.23-4.42l6.07,2.51c.08.03.17.05.26.05.15,0,.29-.05.41-.14.19-.15.29-.38.26-.62l-.86-6.51c.06,0,.13,0,.19,0,.86,0,1.71.17,2.53.51,1.63.67,2.9,1.94,3.57,3.57.67,1.63.67,3.42,0,5.05Z"/>
</svg>